<mxfile host="Electron" agent="Mozilla/5.0 (X11; Linux x86_64) AppleWebKit/537.36 (KHTML, like Gecko) draw.io/27.0.9 Chrome/134.0.6998.205 Electron/35.4.0 Safari/537.36" version="27.0.9">
  <diagram name="Page-1" id="rpSHB6EBel4nEAGP10sm">
    <mxGraphModel dx="437" dy="313" grid="1" gridSize="10" guides="1" tooltips="1" connect="1" arrows="0" fold="1" page="1" pageScale="1" pageWidth="1654" pageHeight="1169" math="1" shadow="0">
      <root>
        <mxCell id="0" />
        <mxCell id="1" parent="0" />
        <mxCell id="cpvBJ78Frsh6foSC-i-Q-16" value="ESP-32&lt;div&gt;D0WD-V3&lt;/div&gt;" style="shadow=0;dashed=0;align=center;html=1;strokeWidth=1;shape=mxgraph.electrical.logic_gates.dual_inline_ic;labelNames=3V3,EN,SVP,SVN,P34,P35,P32,P33,P25,P26,P27,P14,P12,GND,P13,S02,S03,CN0,5V,CLK,SDD,SD1,P15,P2,P0,P4,P16,P17,P5,P18,P19,GND,P21,RX,TX,P22,P23,GND;whiteSpace=wrap;pinSpacing=20;labelCount=38;startPin=n;pinStyle=line;pinLabelType=cust;" parent="1" vertex="1">
          <mxGeometry x="504" y="470" width="180" height="380" as="geometry" />
        </mxCell>
        <mxCell id="SPaGCulWz8OanWPaBI_U-1" value="" style="verticalLabelPosition=bottom;shadow=0;dashed=0;align=center;html=1;verticalAlign=top;shape=mxgraph.electrical.opto_electronics.led_2;pointerEvents=1;fontFamily=Helvetica;fontSize=11;fontColor=default;labelBackgroundColor=default;flipH=1;" vertex="1" parent="1">
          <mxGeometry x="262" y="682" width="100" height="70" as="geometry" />
        </mxCell>
        <mxCell id="SPaGCulWz8OanWPaBI_U-2" value="" style="verticalLabelPosition=bottom;shadow=0;dashed=0;align=center;html=1;verticalAlign=top;shape=mxgraph.electrical.opto_electronics.led_2;pointerEvents=1;fontFamily=Helvetica;fontSize=11;fontColor=default;labelBackgroundColor=default;flipH=1;" vertex="1" parent="1">
          <mxGeometry x="262" y="572" width="100" height="70" as="geometry" />
        </mxCell>
        <mxCell id="SPaGCulWz8OanWPaBI_U-3" value="" style="verticalLabelPosition=bottom;shadow=0;dashed=0;align=center;html=1;verticalAlign=top;shape=mxgraph.electrical.opto_electronics.led_2;pointerEvents=1;fontFamily=Helvetica;fontSize=11;fontColor=default;labelBackgroundColor=default;flipH=1;" vertex="1" parent="1">
          <mxGeometry x="262" y="480" width="100" height="70" as="geometry" />
        </mxCell>
        <mxCell id="SPaGCulWz8OanWPaBI_U-4" style="edgeStyle=orthogonalEdgeStyle;shape=connector;rounded=0;orthogonalLoop=1;jettySize=auto;html=1;exitX=0;exitY=0;exitDx=0;exitDy=290;exitPerimeter=0;entryX=0;entryY=0.57;entryDx=0;entryDy=0;entryPerimeter=0;strokeColor=#000000;align=center;verticalAlign=middle;fontFamily=Helvetica;fontSize=11;fontColor=default;labelBackgroundColor=default;endArrow=none;fillColor=#dae8fc;startFill=0;strokeWidth=2;curved=1;" edge="1" parent="1" source="cpvBJ78Frsh6foSC-i-Q-16" target="SPaGCulWz8OanWPaBI_U-1">
          <mxGeometry relative="1" as="geometry" />
        </mxCell>
        <mxCell id="SPaGCulWz8OanWPaBI_U-5" style="edgeStyle=orthogonalEdgeStyle;shape=connector;rounded=0;orthogonalLoop=1;jettySize=auto;html=1;exitX=0;exitY=0;exitDx=0;exitDy=250;exitPerimeter=0;entryX=0;entryY=0.57;entryDx=0;entryDy=0;entryPerimeter=0;strokeColor=#d79b00;align=center;verticalAlign=middle;fontFamily=Helvetica;fontSize=11;fontColor=default;labelBackgroundColor=default;startFill=0;endArrow=none;fillColor=#ffe6cc;curved=1;strokeWidth=2;" edge="1" parent="1" source="cpvBJ78Frsh6foSC-i-Q-16" target="SPaGCulWz8OanWPaBI_U-2">
          <mxGeometry relative="1" as="geometry" />
        </mxCell>
        <mxCell id="SPaGCulWz8OanWPaBI_U-6" style="edgeStyle=orthogonalEdgeStyle;shape=connector;rounded=0;orthogonalLoop=1;jettySize=auto;html=1;exitX=0;exitY=0;exitDx=0;exitDy=230;exitPerimeter=0;entryX=0;entryY=0.57;entryDx=0;entryDy=0;entryPerimeter=0;strokeColor=#b85450;align=center;verticalAlign=middle;fontFamily=Helvetica;fontSize=11;fontColor=default;labelBackgroundColor=default;startFill=0;endArrow=none;fillColor=#f8cecc;curved=1;strokeWidth=2;" edge="1" parent="1" source="cpvBJ78Frsh6foSC-i-Q-16" target="SPaGCulWz8OanWPaBI_U-3">
          <mxGeometry relative="1" as="geometry" />
        </mxCell>
        <mxCell id="SPaGCulWz8OanWPaBI_U-7" value="" style="pointerEvents=1;verticalLabelPosition=bottom;shadow=0;dashed=0;align=center;html=1;verticalAlign=top;shape=mxgraph.electrical.signal_sources.protective_earth;fontFamily=Helvetica;fontSize=11;fontColor=default;labelBackgroundColor=default;" vertex="1" parent="1">
          <mxGeometry x="130" y="800" width="25" height="20" as="geometry" />
        </mxCell>
        <mxCell id="SPaGCulWz8OanWPaBI_U-11" value="$$220\Omega$$" style="pointerEvents=1;verticalLabelPosition=bottom;shadow=0;dashed=0;align=center;html=1;verticalAlign=top;shape=mxgraph.electrical.resistors.resistor_2;fontFamily=Helvetica;fontSize=11;fontColor=default;labelBackgroundColor=default;" vertex="1" parent="1">
          <mxGeometry x="172" y="510" width="100" height="20" as="geometry" />
        </mxCell>
        <mxCell id="SPaGCulWz8OanWPaBI_U-12" value="$$220\Omega$$" style="pointerEvents=1;verticalLabelPosition=bottom;shadow=0;dashed=0;align=center;html=1;verticalAlign=top;shape=mxgraph.electrical.resistors.resistor_2;fontFamily=Helvetica;fontSize=11;fontColor=default;labelBackgroundColor=default;" vertex="1" parent="1">
          <mxGeometry x="170" y="602" width="100" height="20" as="geometry" />
        </mxCell>
        <mxCell id="SPaGCulWz8OanWPaBI_U-13" value="$$220\Omega$$" style="pointerEvents=1;verticalLabelPosition=bottom;shadow=0;dashed=0;align=center;html=1;verticalAlign=top;shape=mxgraph.electrical.resistors.resistor_2;fontFamily=Helvetica;fontSize=11;fontColor=default;labelBackgroundColor=default;" vertex="1" parent="1">
          <mxGeometry x="172" y="712" width="100" height="20" as="geometry" />
        </mxCell>
        <mxCell id="SPaGCulWz8OanWPaBI_U-14" style="edgeStyle=orthogonalEdgeStyle;shape=connector;rounded=0;orthogonalLoop=1;jettySize=auto;html=1;exitX=0;exitY=0.5;exitDx=0;exitDy=0;exitPerimeter=0;entryX=0.5;entryY=0;entryDx=0;entryDy=0;entryPerimeter=0;strokeColor=#000000;align=center;verticalAlign=middle;fontFamily=Helvetica;fontSize=11;fontColor=default;labelBackgroundColor=default;startFill=0;endArrow=none;fillColor=#dae8fc;" edge="1" parent="1" source="SPaGCulWz8OanWPaBI_U-11" target="SPaGCulWz8OanWPaBI_U-7">
          <mxGeometry relative="1" as="geometry" />
        </mxCell>
        <mxCell id="SPaGCulWz8OanWPaBI_U-15" style="edgeStyle=orthogonalEdgeStyle;shape=connector;rounded=0;orthogonalLoop=1;jettySize=auto;html=1;exitX=0;exitY=0.5;exitDx=0;exitDy=0;exitPerimeter=0;entryX=0.5;entryY=0;entryDx=0;entryDy=0;entryPerimeter=0;strokeColor=#000000;align=center;verticalAlign=middle;fontFamily=Helvetica;fontSize=11;fontColor=default;labelBackgroundColor=default;startFill=0;endArrow=none;fillColor=#dae8fc;" edge="1" parent="1" source="SPaGCulWz8OanWPaBI_U-12" target="SPaGCulWz8OanWPaBI_U-7">
          <mxGeometry relative="1" as="geometry" />
        </mxCell>
        <mxCell id="SPaGCulWz8OanWPaBI_U-16" style="edgeStyle=orthogonalEdgeStyle;shape=connector;rounded=0;orthogonalLoop=1;jettySize=auto;html=1;exitX=0;exitY=0.5;exitDx=0;exitDy=0;exitPerimeter=0;entryX=0.5;entryY=0;entryDx=0;entryDy=0;entryPerimeter=0;strokeColor=#000000;align=center;verticalAlign=middle;fontFamily=Helvetica;fontSize=11;fontColor=default;labelBackgroundColor=default;startFill=0;endArrow=none;fillColor=#dae8fc;" edge="1" parent="1" source="SPaGCulWz8OanWPaBI_U-13" target="SPaGCulWz8OanWPaBI_U-7">
          <mxGeometry relative="1" as="geometry" />
        </mxCell>
      </root>
    </mxGraphModel>
  </diagram>
</mxfile>
